<?xml version="1.0" encoding="UTF-8"?>
<svg version="1.1" xmlns="http://www.w3.org/2000/svg" width="331" height="487">
<path d="M0 0 C3.45449899 1.78258014 6.75515736 3.77199771 10.0625 5.8125 C11.9952454 6.97927103 13.92887684 8.14457529 15.86328125 9.30859375 C16.86568848 9.91429199 17.8680957 10.51999023 18.90087891 11.14404297 C24.14665801 14.28555965 29.44849853 17.32877837 34.75 20.375 C35.83676025 21.00059814 36.92352051 21.62619629 38.04321289 22.27075195 C40.25709197 23.54516265 42.47120402 24.81916873 44.68554688 26.09277344 C50.12650565 29.22364924 55.56305248 32.36216542 61 35.5 C63.16664498 36.75003758 65.33331166 38.00003756 67.5 39.25 C100 58 100 58 132.5 76.75 C133.57330566 77.36915283 134.64661133 77.98830566 135.75244141 78.6262207 C137.91118703 79.87177571 140.06971701 81.11770454 142.22802734 82.36401367 C147.76414426 85.56017844 153.30427343 88.74904106 158.8515625 91.92578125 C206.12196869 119.01962947 206.12196869 119.01962947 217.375 142.5625 C217.69678223 143.23410156 218.01856445 143.90570313 218.35009766 144.59765625 C219.30952813 146.70830181 220.16115121 148.83859466 221 151 C221.40127405 152.00641619 221.40127405 152.00641619 221.81065464 153.03316402 C225.21555689 163.25619897 224.42777412 174.11685301 224.40405273 184.75415039 C224.40976085 187.06464467 224.41672681 189.37513612 224.42485046 191.68562317 C224.4427454 197.93755085 224.44162066 204.1893379 224.43590808 210.44128346 C224.43281178 215.66754837 224.43891341 220.89378643 224.44494683 226.12004751 C224.4597787 239.15423788 224.45618862 252.18834948 224.44408352 265.22253954 C224.43414711 276.52510228 224.44710337 287.82750141 224.47101771 299.13003892 C224.49543444 310.75828235 224.50461133 322.38644284 224.49836498 334.01471132 C224.49499718 340.53408546 224.49739934 347.05332435 224.51461601 353.57267952 C224.53009681 359.70169781 224.5261166 365.83040371 224.50731087 371.95940971 C224.50362859 374.20473547 224.50672285 376.45008444 224.51719666 378.69538879 C224.5304322 381.7679514 224.51883584 384.83948358 224.50120544 387.91200256 C224.51081045 388.79363463 224.52041546 389.6752667 224.53031152 390.58361489 C224.44972444 397.44167489 223.03140577 404.43509169 218.47441572 409.79407459 C213.49414613 414.47675203 207.1034732 417.61442519 201.1875 420.9375 C199.45149417 421.92556486 197.71549503 422.9136417 195.97990417 423.9024353 C194.18351326 424.92468318 192.38534204 425.94374328 190.58691406 426.96240234 C184.89298239 430.19166126 179.22968564 433.47411902 173.5625 436.75 C171.41669223 437.98702352 169.27085939 439.22400354 167.125 440.4609375 C163.16105977 442.74830553 159.2027347 445.04488688 155.25 447.3515625 C154.36884521 447.86493164 153.48769043 448.37830078 152.57983398 448.90722656 C150.95035277 449.85732268 149.32217088 450.80965223 147.69555664 451.76464844 C146.98262451 452.18004883 146.26969238 452.59544922 145.53515625 453.0234375 C144.920354 453.38356934 144.30555176 453.74370117 143.67211914 454.11474609 C138.56860402 456.81665087 133.02529912 456.82440149 127.53173828 455.32739258 C120.21616413 452.68884162 113.60614002 449.25034601 106.875 445.375 C105.77534912 444.75036865 104.67569824 444.1257373 103.54272461 443.48217773 C96.16553958 439.27983337 88.83349281 435.00283043 81.53125 430.671875 C75.90132145 427.33998092 70.2308083 424.07852327 64.5625 420.8125 C63.45527588 420.17449463 62.34805176 419.53648926 61.20727539 418.87915039 C58.93662932 417.57110523 56.66587642 416.26324552 54.39501953 414.95556641 C48.9283002 411.80667946 43.46425113 408.65316736 38 405.5 C35.83334689 404.2499765 33.66668021 402.99997653 31.5 401.75 C18.5 394.25 5.5 386.75 -7.5 379.25 C-9.1092334 378.3216333 -9.1092334 378.3216333 -10.75097656 377.37451172 C-12.91447476 376.12628966 -15.07788643 374.87791761 -17.24121094 373.62939453 C-22.70565017 370.47594744 -28.17163645 367.32523904 -33.640625 364.1796875 C-39.05562626 361.06478616 -44.46359744 357.93792073 -49.86914062 354.80664062 C-52.96359113 353.02100948 -56.06711535 351.25200494 -59.171875 349.484375 C-76.45494099 339.57477162 -89.03491226 329.14871536 -98.3125 311.125 C-98.62590332 310.5261499 -98.93930664 309.9272998 -99.26220703 309.31030273 C-106.24906807 295.04717299 -106.58368458 281.44779242 -106.53344727 265.90527344 C-106.54051577 263.59433443 -106.54926467 261.28340005 -106.55955505 258.97247314 C-106.58194719 252.73308363 -106.57913413 246.49394898 -106.57023358 240.25453472 C-106.56510549 235.03556816 -106.57243054 229.81664871 -106.57970566 224.59768701 C-106.59763806 211.58383678 -106.59132679 198.57012805 -106.57353585 185.55628303 C-106.55882441 174.27327348 -106.57349639 162.99052988 -106.60230602 151.70755455 C-106.63174002 140.09276298 -106.64215419 128.47810485 -106.63312382 116.86327767 C-106.6282006 110.35398234 -106.63037876 103.84489396 -106.65091133 97.33562469 C-106.66928539 91.21881282 -106.66328791 85.10249555 -106.63871193 78.98571014 C-106.63371083 76.74522141 -106.63717548 74.50469485 -106.64986038 72.26423645 C-106.66584298 69.19819627 -106.65079038 66.13377487 -106.62818909 63.06781006 C-106.64002482 62.18822435 -106.65186054 61.30863864 -106.66405493 60.40239882 C-106.55585338 53.14347458 -104.26846784 46.7056026 -99.41215235 41.19978881 C-94.4493356 36.50328342 -88.08195825 33.47853927 -82.125 30.25 C-79.86511846 29.00529771 -77.60600432 27.75920115 -75.34765625 26.51171875 C-73.70627686 25.60752197 -73.70627686 25.60752197 -72.03173828 24.68505859 C-68.17087319 22.53916627 -64.35846081 20.32069857 -60.5625 18.0625 C-53.73545699 14.01492788 -46.88716125 10.00497818 -40.01974487 6.02633667 C-38.28461612 5.02007509 -36.5515871 4.01019565 -34.81860352 3.00024414 C-33.74924561 2.38141357 -32.6798877 1.76258301 -31.578125 1.125 C-30.62325195 0.57070313 -29.66837891 0.01640625 -28.68457031 -0.5546875 C-18.50158726 -6.03697739 -10.32178586 -4.42462186 0 0 Z " fill="#0B0D10" transform="translate(106,16)"/>
<path d="M0 0 C3.45449899 1.78258014 6.75515736 3.77199771 10.0625 5.8125 C11.9952454 6.97927103 13.92887684 8.14457529 15.86328125 9.30859375 C16.86568848 9.91429199 17.8680957 10.51999023 18.90087891 11.14404297 C24.14665801 14.28555965 29.44849853 17.32877837 34.75 20.375 C35.83676025 21.00059814 36.92352051 21.62619629 38.04321289 22.27075195 C40.25709197 23.54516265 42.47120402 24.81916873 44.68554688 26.09277344 C50.12650565 29.22364924 55.56305248 32.36216542 61 35.5 C63.16664498 36.75003758 65.33331166 38.00003756 67.5 39.25 C100 58 100 58 132.5 76.75 C133.57330566 77.36915283 134.64661133 77.98830566 135.75244141 78.6262207 C137.91118703 79.87177571 140.06971701 81.11770454 142.22802734 82.36401367 C147.76414426 85.56017844 153.30427343 88.74904106 158.8515625 91.92578125 C206.12196869 119.01962947 206.12196869 119.01962947 217.375 142.5625 C217.69678223 143.23410156 218.01856445 143.90570313 218.35009766 144.59765625 C219.30952813 146.70830181 220.16115121 148.83859466 221 151 C221.40127405 152.00641619 221.40127405 152.00641619 221.81065464 153.03316402 C225.21555689 163.25619897 224.42777412 174.11685301 224.40405273 184.75415039 C224.40976085 187.06464467 224.41672681 189.37513612 224.42485046 191.68562317 C224.4427454 197.93755085 224.44162066 204.1893379 224.43590808 210.44128346 C224.43281178 215.66754837 224.43891341 220.89378643 224.44494683 226.12004751 C224.4597787 239.15423788 224.45618862 252.18834948 224.44408352 265.22253954 C224.43414711 276.52510228 224.44710337 287.82750141 224.47101771 299.13003892 C224.49543444 310.75828235 224.50461133 322.38644284 224.49836498 334.01471132 C224.49499718 340.53408546 224.49739934 347.05332435 224.51461601 353.57267952 C224.53009681 359.70169781 224.5261166 365.83040371 224.50731087 371.95940971 C224.50362859 374.20473547 224.50672285 376.45008444 224.51719666 378.69538879 C224.5304322 381.7679514 224.51883584 384.83948358 224.50120544 387.91200256 C224.51081045 388.79363463 224.52041546 389.6752667 224.53031152 390.58361489 C224.44972444 397.44167489 223.03140577 404.43509169 218.47441572 409.79407459 C213.49414613 414.47675203 207.1034732 417.61442519 201.1875 420.9375 C199.45149417 421.92556486 197.71549503 422.9136417 195.97990417 423.9024353 C194.18351326 424.92468318 192.38534204 425.94374328 190.58691406 426.96240234 C184.89298239 430.19166126 179.22968564 433.47411902 173.5625 436.75 C171.41669223 437.98702352 169.27085939 439.22400354 167.125 440.4609375 C163.16105977 442.74830553 159.2027347 445.04488688 155.25 447.3515625 C154.36884521 447.86493164 153.48769043 448.37830078 152.57983398 448.90722656 C150.95035277 449.85732268 149.32217088 450.80965223 147.69555664 451.76464844 C146.98262451 452.18004883 146.26969238 452.59544922 145.53515625 453.0234375 C144.920354 453.38356934 144.30555176 453.74370117 143.67211914 454.11474609 C138.47685321 456.86522562 132.98537683 456.74076615 127.38671875 455.3515625 C120.04599603 452.86570271 113.56210266 449.07697827 107 445 C107.66 444.67 108.32 444.34 109 444 C111.5471623 445.22192954 113.97988348 446.49244621 116.4375 447.875 C124.35318754 452.26345118 129.92008586 453.65028563 139 453 C144.8183118 451.09582523 148.25587597 447.26199733 151.12433147 441.89718723 C152.37649992 437.75433371 152.27886707 433.82555708 152.26069641 429.52000427 C152.26452196 428.56048058 152.26834751 427.60095689 152.27228898 426.61235672 C152.28261444 423.39442896 152.27862758 420.17667979 152.2746582 416.95874023 C152.27900508 414.65237767 152.28418815 412.34601656 152.29014587 410.03965759 C152.30355377 403.7707366 152.30411225 397.50187584 152.30158257 391.2329433 C152.30051348 385.99723196 152.30539497 380.76153285 152.310188 375.52582413 C152.32192573 362.46096152 152.32105472 349.39613321 152.31463119 336.33126838 C152.30946926 325.00383775 152.32069799 313.67649331 152.33972941 302.34907972 C152.35914162 290.70520632 152.3670666 279.0613773 152.36360615 267.41748768 C152.36179549 260.88568527 152.36440739 254.35396168 152.37832069 247.82217216 C152.39092673 241.67357867 152.38892851 235.5251569 152.37590981 229.37656593 C152.37355005 227.12563391 152.37625706 224.87468971 152.38453293 222.62377167 C152.43289598 208.44144716 152.04988273 195.75853922 145.3125 182.9375 C144.96509766 182.26267578 144.61769531 181.58785156 144.25976562 180.89257812 C136.86958046 166.89783108 127.51316795 157.07257223 114 149 C111.83318507 147.64607058 109.66652227 146.29189767 107.5 144.9375 C102.6870082 141.98394437 97.81474857 139.20852362 92.83984375 136.5390625 C87.88215369 133.85222635 83.00630352 131.02100132 78.11669922 128.21289062 C75.75857611 126.86166161 73.39709981 125.51641441 71.03515625 124.171875 C61.97272831 119.01031491 52.93632096 113.81147719 43.95727539 108.50610352 C38.56641509 105.32359373 33.14036634 102.20921357 27.69921875 99.11328125 C23.43220438 96.68146685 19.18550659 94.21481758 14.9375 91.75 C8.09980982 87.7832542 1.24339552 83.85081513 -5.625 79.9375 C-12.80196282 75.84690758 -19.943012 71.70131454 -27.05493164 67.4987793 C-32.31363908 64.39410616 -37.60785409 61.35687507 -42.921875 58.34765625 C-46.26888368 56.43694179 -49.58030863 54.46963202 -52.890625 52.49609375 C-53.94693115 51.86993164 -55.0032373 51.24376953 -56.09155273 50.59863281 C-58.19417738 49.35105109 -60.29285242 48.09678181 -62.38696289 46.83496094 C-72.07862321 41.10153019 -80.54910346 37.54617719 -92 39 C-96.9366011 41.29199337 -99.39931255 44.26303358 -102 49 C-103.98481433 54.63603176 -104.28425381 59.61574814 -104.25396729 65.50617981 C-104.25708727 66.44432217 -104.26020725 67.38246453 -104.26342177 68.34903544 C-104.27137848 71.48251068 -104.26508709 74.61579101 -104.25878906 77.74926758 C-104.26150001 80.0000571 -104.26506152 82.25084573 -104.26940918 84.50163269 C-104.27852465 90.60915499 -104.27499194 96.71660968 -104.26865101 102.82413316 C-104.26358482 109.22029695 -104.26828436 115.61645499 -104.27142334 122.01261902 C-104.27529501 133.44502222 -104.26908052 144.87738803 -104.25890467 156.30978491 C-104.249976 166.66104697 -104.25151632 177.01226415 -104.26074219 187.36352539 C-104.27146312 199.39776862 -104.27541924 211.43197797 -104.26951766 223.46622771 C-104.26640397 229.83136077 -104.26597195 236.19646295 -104.27259064 242.56159401 C-104.27838184 248.5493088 -104.27433466 254.53693915 -104.26280212 260.52464485 C-104.26016468 262.71836456 -104.26090493 264.91209142 -104.26532745 267.10580826 C-104.27082074 270.10825685 -104.26390291 273.11043757 -104.25396729 276.11286926 C-104.25842873 276.97388412 -104.26289017 277.83489897 -104.26748681 278.72200519 C-104.21113179 287.5475058 -102.46610857 295.5424659 -99.125 303.6875 C-98.63257812 304.90824219 -98.14015625 306.12898438 -97.6328125 307.38671875 C-96.43687407 310.03323322 -95.22701396 312.3634913 -93.7421875 314.83203125 C-93.16726562 315.87746094 -92.59234375 316.92289062 -92 318 C-92.33 318.66 -92.66 319.32 -93 320 C-96.94221427 314.18453498 -99.86929532 308.24882013 -102.3125 301.6875 C-102.56660645 301.00623047 -102.82071289 300.32496094 -103.08251953 299.62304688 C-105.58163524 292.71182819 -106.14986313 286.78059743 -106.15390015 279.50654602 C-106.1582824 278.5456112 -106.16266465 277.58467637 -106.1671797 276.59462231 C-106.18054285 273.37208018 -106.18674097 270.14956538 -106.19287109 266.92700195 C-106.20077394 264.61739479 -106.209043 262.30778885 -106.21765137 259.9981842 C-106.24384763 252.41156184 -106.25917539 244.82493403 -106.2734375 237.23828125 C-106.27879793 234.62553593 -106.28417544 232.01279064 -106.28956985 229.40004539 C-106.31119394 218.53194411 -106.33008174 207.66384512 -106.34119225 196.79572773 C-106.34412172 193.97783212 -106.34708342 191.15993654 -106.35009766 188.34204102 C-106.35084371 187.64170654 -106.35158976 186.94137207 -106.35235842 186.21981534 C-106.3650087 174.8780582 -106.39823055 163.53645795 -106.43989949 152.19477413 C-106.4823678 140.53961569 -106.50548546 128.88454581 -106.51111281 117.22931069 C-106.51476539 110.68966439 -106.52677781 104.15028428 -106.55921555 97.61071205 C-106.58930192 91.45713511 -106.59560558 85.30398538 -106.58383179 79.15035057 C-106.58361111 76.89533775 -106.59191087 74.64030506 -106.60948563 72.38536072 C-106.63222443 69.29918664 -106.62385957 66.21455565 -106.60800171 63.12837219 C-106.62882484 61.79978502 -106.62882484 61.79978502 -106.65006864 60.44435769 C-106.55829225 53.16168589 -104.28558637 46.72433614 -99.41207349 41.20002538 C-94.44983812 36.50302846 -88.08183247 33.4784711 -82.125 30.25 C-79.86511846 29.00529771 -77.60600432 27.75920115 -75.34765625 26.51171875 C-73.70627686 25.60752197 -73.70627686 25.60752197 -72.03173828 24.68505859 C-68.17087319 22.53916627 -64.35846081 20.32069857 -60.5625 18.0625 C-53.73545699 14.01492788 -46.88716125 10.00497818 -40.01974487 6.02633667 C-38.28461612 5.02007509 -36.5515871 4.01019565 -34.81860352 3.00024414 C-33.74924561 2.38141357 -32.6798877 1.76258301 -31.578125 1.125 C-30.62325195 0.57070313 -29.66837891 0.01640625 -28.68457031 -0.5546875 C-18.50158726 -6.03697739 -10.32178586 -4.42462186 0 0 Z " fill="#1F1F1F" transform="translate(106,16)"/>
<path d="M0 0 C3.45449899 1.78258014 6.75515736 3.77199771 10.0625 5.8125 C11.9952454 6.97927103 13.92887684 8.14457529 15.86328125 9.30859375 C16.86568848 9.91429199 17.8680957 10.51999023 18.90087891 11.14404297 C24.14665801 14.28555965 29.44849853 17.32877837 34.75 20.375 C35.83676025 21.00059814 36.92352051 21.62619629 38.04321289 22.27075195 C40.25709197 23.54516265 42.47120402 24.81916873 44.68554688 26.09277344 C50.12650565 29.22364924 55.56305248 32.36216542 61 35.5 C63.16664498 36.75003758 65.33331166 38.00003756 67.5 39.25 C100 58 100 58 132.5 76.75 C133.57330566 77.36915283 134.64661133 77.98830566 135.75244141 78.6262207 C137.91118703 79.87177571 140.06971701 81.11770454 142.22802734 82.36401367 C147.76414426 85.56017844 153.30427343 88.74904106 158.8515625 91.92578125 C206.12196869 119.01962947 206.12196869 119.01962947 217.375 142.5625 C217.69678223 143.23410156 218.01856445 143.90570313 218.35009766 144.59765625 C219.30952813 146.70830181 220.16115121 148.83859466 221 151 C221.40127405 152.00641619 221.40127405 152.00641619 221.81065464 153.03316402 C225.21555689 163.25619897 224.42777412 174.11685301 224.40405273 184.75415039 C224.40976085 187.06464467 224.41672681 189.37513612 224.42485046 191.68562317 C224.4427454 197.93755085 224.44162066 204.1893379 224.43590808 210.44128346 C224.43281178 215.66754837 224.43891341 220.89378643 224.44494683 226.12004751 C224.4597787 239.15423788 224.45618862 252.18834948 224.44408352 265.22253954 C224.43414711 276.52510228 224.44710337 287.82750141 224.47101771 299.13003892 C224.49543444 310.75828235 224.50461133 322.38644284 224.49836498 334.01471132 C224.49499718 340.53408546 224.49739934 347.05332435 224.51461601 353.57267952 C224.53009681 359.70169781 224.5261166 365.83040371 224.50731087 371.95940971 C224.50362859 374.20473547 224.50672285 376.45008444 224.51719666 378.69538879 C224.5304322 381.7679514 224.51883584 384.83948358 224.50120544 387.91200256 C224.51081045 388.79363463 224.52041546 389.6752667 224.53031152 390.58361489 C224.44972444 397.44167489 223.03140577 404.43509169 218.47441572 409.79407459 C213.49414613 414.47675203 207.1034732 417.61442519 201.1875 420.9375 C199.45149417 421.92556486 197.71549503 422.9136417 195.97990417 423.9024353 C194.18351326 424.92468318 192.38534204 425.94374328 190.58691406 426.96240234 C184.89298239 430.19166126 179.22968564 433.47411902 173.5625 436.75 C171.41669223 437.98702352 169.27085939 439.22400354 167.125 440.4609375 C163.16105977 442.74830553 159.2027347 445.04488688 155.25 447.3515625 C154.36884521 447.86493164 153.48769043 448.37830078 152.57983398 448.90722656 C150.95035277 449.85732268 149.32217088 450.80965223 147.69555664 451.76464844 C146.98262451 452.18004883 146.26969238 452.59544922 145.53515625 453.0234375 C144.920354 453.38356934 144.30555176 453.74370117 143.67211914 454.11474609 C138.47685321 456.86522562 132.98537683 456.74076615 127.38671875 455.3515625 C120.04599603 452.86570271 113.56210266 449.07697827 107 445 C107.66 444.67 108.32 444.34 109 444 C111.5471623 445.22192954 113.97988348 446.49244621 116.4375 447.875 C124.34172894 452.25709854 129.92788773 453.67379083 139 453 C142.59264774 451.69358264 144.73620466 450.21471714 147.6875 447.8125 C150 446 150 446 153 446 C154.72469542 445.15138655 156.40866295 444.21903066 158.06640625 443.24609375 C159.09701172 442.64595459 160.12761719 442.04581543 161.18945312 441.42749023 C162.30255859 440.77079346 163.41566406 440.11409668 164.5625 439.4375 C165.72161319 438.75982707 166.88112452 438.08283474 168.04101562 437.40649414 C170.46521289 435.99230639 172.88764058 434.57515058 175.30908203 433.15625 C178.91436479 431.04653688 182.53124859 428.95743126 186.15234375 426.875 C187.01914513 426.37638206 187.01914513 426.37638206 187.90345764 425.86769104 C189.60219038 424.89076119 191.30109365 423.91412789 193 422.9375 C198.88175711 419.55574821 204.75759958 416.16433912 210.59765625 412.7109375 C211.38922119 412.24349121 212.18078613 411.77604492 212.99633789 411.29443359 C218.61978432 407.66149671 220.47418002 402.25021072 222 396 C222.25658318 393.12267563 222.25658318 393.12267563 222 391 C221.34 390.67 220.68 390.34 220 390 C220.99 389.67 221.98 389.34 223 389 C222.505 283.07 222.505 283.07 222 175 C221.34 174.67 220.68 174.34 220 174 C220.99 173.67 221.98 173.34 223 173 C218.97020617 149.96284104 211.25306526 128.86687638 192.25 113.8125 C189.27599007 111.7583679 189.27599007 111.7583679 186.6574707 112.19262695 C183.54891449 113.13704546 181.04293956 114.47597253 178.23046875 116.10546875 C177.10560059 116.75273926 175.98073242 117.40000977 174.82177734 118.06689453 C173.6102406 118.77357282 172.3988174 119.4804458 171.1875 120.1875 C169.93734007 120.91056149 168.6868476 121.63304833 167.43603516 122.35498047 C164.23938713 124.20248572 161.04785556 126.05863175 157.85797119 127.91778564 C156.07348149 128.95719916 154.28777053 129.99447277 152.50146484 131.03076172 C138.17040258 139.33603942 138.17040258 139.33603942 124.00048828 147.91162109 C122 149 122 149 120 149 C120 149.66 120 150.32 120 151 C120.5775 151.26039063 121.155 151.52078125 121.75 151.7890625 C124.15689843 153.08444186 125.96514546 154.55475902 128 156.375 C128.6909375 156.99246094 129.381875 157.60992187 130.09375 158.24609375 C132.12025994 160.110649 134.09274947 162.0132807 136 164 C135.67 164.66 135.34 165.32 135 166 C134.40574219 165.35933594 133.81148437 164.71867188 133.19921875 164.05859375 C127.27797104 157.8795001 121.35217995 153.32075904 114 149 C111.83229311 147.64749912 109.66565818 146.29327891 107.5 144.9375 C102.6870082 141.98394437 97.81474857 139.20852362 92.83984375 136.5390625 C87.88215369 133.85222635 83.00630352 131.02100132 78.11669922 128.21289062 C75.75857611 126.86166161 73.39709981 125.51641441 71.03515625 124.171875 C61.97272831 119.01031491 52.93632096 113.81147719 43.95727539 108.50610352 C38.56641509 105.32359373 33.14036634 102.20921357 27.69921875 99.11328125 C23.43220438 96.68146685 19.18550659 94.21481758 14.9375 91.75 C8.09980982 87.7832542 1.24339552 83.85081513 -5.625 79.9375 C-12.80196282 75.84690758 -19.943012 71.70131454 -27.05493164 67.4987793 C-32.31363908 64.39410616 -37.60785409 61.35687507 -42.921875 58.34765625 C-46.26888368 56.43694179 -49.58030863 54.46963202 -52.890625 52.49609375 C-53.94693115 51.86993164 -55.0032373 51.24376953 -56.09155273 50.59863281 C-58.19417738 49.35105109 -60.29285242 48.09678181 -62.38696289 46.83496094 C-72.07862321 41.10153019 -80.54910346 37.54617719 -92 39 C-96.9366011 41.29199337 -99.39931255 44.26303358 -102 49 C-103.98481433 54.63603176 -104.28425381 59.61574814 -104.25396729 65.50617981 C-104.25708727 66.44432217 -104.26020725 67.38246453 -104.26342177 68.34903544 C-104.27137848 71.48251068 -104.26508709 74.61579101 -104.25878906 77.74926758 C-104.26150001 80.0000571 -104.26506152 82.25084573 -104.26940918 84.50163269 C-104.27852465 90.60915499 -104.27499194 96.71660968 -104.26865101 102.82413316 C-104.26358482 109.22029695 -104.26828436 115.61645499 -104.27142334 122.01261902 C-104.27529501 133.44502222 -104.26908052 144.87738803 -104.25890467 156.30978491 C-104.249976 166.66104697 -104.25151632 177.01226415 -104.26074219 187.36352539 C-104.27146312 199.39776862 -104.27541924 211.43197797 -104.26951766 223.46622771 C-104.26640397 229.83136077 -104.26597195 236.19646295 -104.27259064 242.56159401 C-104.27838184 248.5493088 -104.27433466 254.53693915 -104.26280212 260.52464485 C-104.26016468 262.71836456 -104.26090493 264.91209142 -104.26532745 267.10580826 C-104.27082074 270.10825685 -104.26390291 273.11043757 -104.25396729 276.11286926 C-104.25842873 276.97388412 -104.26289017 277.83489897 -104.26748681 278.72200519 C-104.21113179 287.5475058 -102.46610857 295.5424659 -99.125 303.6875 C-98.63257812 304.90824219 -98.14015625 306.12898438 -97.6328125 307.38671875 C-96.43687407 310.03323322 -95.22701396 312.3634913 -93.7421875 314.83203125 C-93.16726562 315.87746094 -92.59234375 316.92289062 -92 318 C-92.33 318.66 -92.66 319.32 -93 320 C-96.94221427 314.18453498 -99.86929532 308.24882013 -102.3125 301.6875 C-102.56660645 301.00623047 -102.82071289 300.32496094 -103.08251953 299.62304688 C-105.58163524 292.71182819 -106.14986313 286.78059743 -106.15390015 279.50654602 C-106.1582824 278.5456112 -106.16266465 277.58467637 -106.1671797 276.59462231 C-106.18054285 273.37208018 -106.18674097 270.14956538 -106.19287109 266.92700195 C-106.20077394 264.61739479 -106.209043 262.30778885 -106.21765137 259.9981842 C-106.24384763 252.41156184 -106.25917539 244.82493403 -106.2734375 237.23828125 C-106.27879793 234.62553593 -106.28417544 232.01279064 -106.28956985 229.40004539 C-106.31119394 218.53194411 -106.33008174 207.66384512 -106.34119225 196.79572773 C-106.34412172 193.97783212 -106.34708342 191.15993654 -106.35009766 188.34204102 C-106.35084371 187.64170654 -106.35158976 186.94137207 -106.35235842 186.21981534 C-106.3650087 174.8780582 -106.39823055 163.53645795 -106.43989949 152.19477413 C-106.4823678 140.53961569 -106.50548546 128.88454581 -106.51111281 117.22931069 C-106.51476539 110.68966439 -106.52677781 104.15028428 -106.55921555 97.61071205 C-106.58930192 91.45713511 -106.59560558 85.30398538 -106.58383179 79.15035057 C-106.58361111 76.89533775 -106.59191087 74.64030506 -106.60948563 72.38536072 C-106.63222443 69.29918664 -106.62385957 66.21455565 -106.60800171 63.12837219 C-106.62882484 61.79978502 -106.62882484 61.79978502 -106.65006864 60.44435769 C-106.55829225 53.16168589 -104.28558637 46.72433614 -99.41207349 41.20002538 C-94.44983812 36.50302846 -88.08183247 33.4784711 -82.125 30.25 C-79.86511846 29.00529771 -77.60600432 27.75920115 -75.34765625 26.51171875 C-73.70627686 25.60752197 -73.70627686 25.60752197 -72.03173828 24.68505859 C-68.17087319 22.53916627 -64.35846081 20.32069857 -60.5625 18.0625 C-53.73545699 14.01492788 -46.88716125 10.00497818 -40.01974487 6.02633667 C-38.28461612 5.02007509 -36.5515871 4.01019565 -34.81860352 3.00024414 C-33.74924561 2.38141357 -32.6798877 1.76258301 -31.578125 1.125 C-30.62325195 0.57070313 -29.66837891 0.01640625 -28.68457031 -0.5546875 C-18.50158726 -6.03697739 -10.32178586 -4.42462186 0 0 Z " fill="#232323" transform="translate(106,16)"/>
<path d="M0 0 C14.93748505 6.82856459 24.88864258 23.95334619 30.8515625 38.5625 C33.5769741 46.18425451 34.97073437 53.78868483 34.9140625 61.875 C33.32291667 62.79296875 31.73177083 63.7109375 30.140625 64.62890625 C29.10067383 65.22888428 28.06072266 65.8288623 26.98925781 66.44702148 C24.66310754 67.78901859 22.33693888 69.13098377 20.01074219 70.47290039 C12.83697113 74.61132052 5.66398753 78.75110052 -1.50830078 82.89208984 C-4.76777626 84.77316351 -8.02831253 86.65238667 -11.2890625 88.53125 C-14.78303402 90.54464826 -18.27334052 92.56396049 -21.7578125 94.59375 C-23.0338462 95.33334707 -24.30988704 96.07293184 -25.5859375 96.8125 C-26.6275 97.41964844 -27.6690625 98.02679688 -28.7421875 98.65234375 C-31.0859375 99.875 -31.0859375 99.875 -33.0859375 99.875 C-33.29347656 98.76125 -33.50101562 97.6475 -33.71484375 96.5 C-35.31671937 88.38865997 -37.22701695 80.66589638 -40.5234375 73.0625 C-40.93734741 72.08700195 -40.93734741 72.08700195 -41.35961914 71.09179688 C-43.29037143 66.85092813 -45.66343157 64.00014066 -49.0859375 60.875 C-50.88374594 58.74426407 -51.99371907 57.13295663 -52.93359375 54.50390625 C-55.35573507 48.97813977 -60.55289156 44.6995792 -65.5859375 41.5 C-66.4109375 40.96375 -67.2359375 40.4275 -68.0859375 39.875 C-68.0859375 39.215 -68.0859375 38.555 -68.0859375 37.875 C-66.49479167 36.95703125 -64.90364583 36.0390625 -63.3125 35.12109375 C-62.27254883 34.52111572 -61.23259766 33.9211377 -60.16113281 33.30297852 C-57.83498254 31.96098141 -55.50881388 30.61901623 -53.18261719 29.27709961 C-46.00893297 25.13872957 -38.83578334 20.99943784 -31.6640625 16.85766602 C-29.45930803 15.58563008 -27.25358999 14.31526266 -25.046875 13.04663086 C-20.5066946 10.43581745 -15.97249673 7.82061735 -11.484375 5.12109375 C-10.83049805 4.73236084 -10.17662109 4.34362793 -9.50292969 3.94311523 C-7.87170625 2.97082606 -6.24792384 1.98608031 -4.625 1 C-2.0859375 -0.125 -2.0859375 -0.125 0 0 Z " fill="#1A1A1A" transform="translate(294.0859375,127.125)"/>
<path d="M0 0 C3.45449899 1.78258014 6.75515736 3.77199771 10.0625 5.8125 C11.9952454 6.97927103 13.92887684 8.14457529 15.86328125 9.30859375 C16.86568848 9.91429199 17.8680957 10.51999023 18.90087891 11.14404297 C24.14665801 14.28555965 29.44849853 17.32877837 34.75 20.375 C35.83676025 21.00059814 36.92352051 21.62619629 38.04321289 22.27075195 C40.25709197 23.54516265 42.47120402 24.81916873 44.68554688 26.09277344 C50.12650565 29.22364924 55.56305248 32.36216542 61 35.5 C63.16664498 36.75003758 65.33331166 38.00003756 67.5 39.25 C100 58 100 58 132.5 76.75 C133.57330566 77.36915283 134.64661133 77.98830566 135.75244141 78.6262207 C137.91118703 79.87177571 140.06971701 81.11770454 142.22802734 82.36401367 C147.76414426 85.56017844 153.30427343 88.74904106 158.8515625 91.92578125 C206.12196869 119.01962947 206.12196869 119.01962947 217.375 142.5625 C217.69678223 143.23410156 218.01856445 143.90570313 218.35009766 144.59765625 C219.30952813 146.70830181 220.16115121 148.83859466 221 151 C221.40127405 152.00641619 221.40127405 152.00641619 221.81065464 153.03316402 C225.21555689 163.25619897 224.42777412 174.11685301 224.40405273 184.75415039 C224.40976085 187.06464467 224.41672681 189.37513612 224.42485046 191.68562317 C224.4427454 197.93755085 224.44162066 204.1893379 224.43590808 210.44128346 C224.43281178 215.66754837 224.43891341 220.89378643 224.44494683 226.12004751 C224.4597787 239.15423788 224.45618862 252.18834948 224.44408352 265.22253954 C224.43414711 276.52510228 224.44710337 287.82750141 224.47101771 299.13003892 C224.49543444 310.75828235 224.50461133 322.38644284 224.49836498 334.01471132 C224.49499718 340.53408546 224.49739934 347.05332435 224.51461601 353.57267952 C224.53009681 359.70169781 224.5261166 365.83040371 224.50731087 371.95940971 C224.50362859 374.20473547 224.50672285 376.45008444 224.51719666 378.69538879 C224.5304322 381.7679514 224.51883584 384.83948358 224.50120544 387.91200256 C224.51081045 388.79363463 224.52041546 389.6752667 224.53031152 390.58361489 C224.44972444 397.44167489 223.03140577 404.43509169 218.47441572 409.79407459 C213.49414613 414.47675203 207.1034732 417.61442519 201.1875 420.9375 C199.45149417 421.92556486 197.71549503 422.9136417 195.97990417 423.9024353 C194.18351326 424.92468318 192.38534204 425.94374328 190.58691406 426.96240234 C184.89298239 430.19166126 179.22968564 433.47411902 173.5625 436.75 C171.41669223 437.98702352 169.27085939 439.22400354 167.125 440.4609375 C163.16105977 442.74830553 159.2027347 445.04488688 155.25 447.3515625 C154.36884521 447.86493164 153.48769043 448.37830078 152.57983398 448.90722656 C150.95035277 449.85732268 149.32217088 450.80965223 147.69555664 451.76464844 C146.98262451 452.18004883 146.26969238 452.59544922 145.53515625 453.0234375 C144.920354 453.38356934 144.30555176 453.74370117 143.67211914 454.11474609 C138.47685321 456.86522562 132.98537683 456.74076615 127.38671875 455.3515625 C120.04599603 452.86570271 113.56210266 449.07697827 107 445 C107.66 444.67 108.32 444.34 109 444 C111.5471623 445.22192954 113.97988348 446.49244621 116.4375 447.875 C124.34172894 452.25709854 129.92788773 453.67379083 139 453 C142.59264774 451.69358264 144.73620466 450.21471714 147.6875 447.8125 C150 446 150 446 153 446 C154.72469542 445.15138655 156.40866295 444.21903066 158.06640625 443.24609375 C159.09701172 442.64595459 160.12761719 442.04581543 161.18945312 441.42749023 C162.30255859 440.77079346 163.41566406 440.11409668 164.5625 439.4375 C165.72161319 438.75982707 166.88112452 438.08283474 168.04101562 437.40649414 C170.46521289 435.99230639 172.88764058 434.57515058 175.30908203 433.15625 C178.91436479 431.04653688 182.53124859 428.95743126 186.15234375 426.875 C187.01914513 426.37638206 187.01914513 426.37638206 187.90345764 425.86769104 C189.60219038 424.89076119 191.30109365 423.91412789 193 422.9375 C198.88175711 419.55574821 204.75759958 416.16433912 210.59765625 412.7109375 C211.38922119 412.24349121 212.18078613 411.77604492 212.99633789 411.29443359 C218.61978432 407.66149671 220.47418002 402.25021072 222 396 C222.25658318 393.12267563 222.25658318 393.12267563 222 391 C221.34 390.67 220.68 390.34 220 390 C220.99 389.67 221.98 389.34 223 389 C222.505 283.07 222.505 283.07 222 175 C221.34 174.67 220.68 174.34 220 174 C220.99 173.67 221.98 173.34 223 173 C218.97020617 149.96284104 211.25306526 128.86687638 192.25 113.8125 C189.25599828 111.8124918 189.25599828 111.8124918 186.5 111.9375 C184.30107024 112.87204515 182.36701404 113.91770825 180.3125 115.125 C179.219375 115.74375 178.12625 116.3625 177 117 C176.34 116.67 175.68 116.34 175 116 C176.28813342 115.16121545 177.58063256 114.32913217 178.875 113.5 C179.95394531 112.80390625 179.95394531 112.80390625 181.0546875 112.09375 C183 111 183 111 185 111 C182.50615208 108.20436225 179.74784919 106.56746596 176.49609375 104.734375 C175.3762207 104.09935059 174.25634766 103.46432617 173.10253906 102.81005859 C172.50606567 102.47480164 171.90959229 102.13954468 171.29504395 101.79412842 C169.40871093 100.73381762 167.52570916 99.66780633 165.64355469 98.60009766 C163.69286855 97.49354106 161.74201842 96.38728903 159.79019165 95.28274536 C153.42430861 91.67986501 147.08408493 88.0335258 140.75 84.375 C139.14572144 83.44917114 139.14572144 83.44917114 137.5090332 82.50463867 C129.38282255 77.81030256 121.2796094 73.07718621 113.17871094 68.33935547 C105.47975166 63.84472573 97.74531754 59.41400101 90 55 C80.280267 49.46079375 70.59350314 43.86853907 60.9375 38.21875 C52.56528889 33.32200583 44.17077219 28.46467985 35.7565918 23.64038086 C30.20271664 20.45064111 24.68077692 17.21895958 19.19921875 13.90625 C18.10544922 13.25076172 17.01167969 12.59527344 15.88476562 11.91992188 C13.79935331 10.66765535 11.72082464 9.40383172 9.65039062 8.12695312 C8.71775391 7.56943359 7.78511719 7.01191406 6.82421875 6.4375 C6.01041748 5.94121094 5.19661621 5.44492187 4.3581543 4.93359375 C1.45350202 3.78364134 -0.04297307 4.13233429 -3 5 C-4.1446875 5.2784375 -4.1446875 5.2784375 -5.3125 5.5625 C-5.869375 5.706875 -6.42625 5.85125 -7 6 C-5.625 4.5 -5.625 4.5 -4 3 C-3.34 3 -2.68 3 -2 3 C-2 2.34 -2 1.68 -2 1 C-9.44383377 -1.8357462 -17.78094707 -3.17423712 -25.30664062 -0.0390625 C-30.76362693 2.71796678 -35.93162335 5.95587151 -41.10693359 9.203125 C-46.06998086 12.285659 -51.13410124 15.19388385 -56.1875 18.125 C-57.1863623 18.70926758 -58.18522461 19.29353516 -59.21435547 19.89550781 C-68.0662004 25.07078898 -77.00822241 30.07268753 -86 35 C-82.37 35.99 -78.74 36.98 -75 38 C-75 38.33 -75 38.66 -75 39 C-76.15757813 38.95359375 -77.31515625 38.9071875 -78.5078125 38.859375 C-80.04684906 38.82183752 -81.5859137 38.78543949 -83.125 38.75 C-83.88554688 38.71648438 -84.64609375 38.68296875 -85.4296875 38.6484375 C-90.79339339 38.55595981 -93.74345132 39.44430299 -98 43 C-103.54584177 49.93230221 -104.29789295 56.96306899 -104.25396729 65.50617981 C-104.25708727 66.44432217 -104.26020725 67.38246453 -104.26342177 68.34903544 C-104.27137848 71.48251068 -104.26508709 74.61579101 -104.25878906 77.74926758 C-104.26150001 80.0000571 -104.26506152 82.25084573 -104.26940918 84.50163269 C-104.27852465 90.60915499 -104.27499194 96.71660968 -104.26865101 102.82413316 C-104.26358482 109.22029695 -104.26828436 115.61645499 -104.27142334 122.01261902 C-104.27529501 133.44502222 -104.26908052 144.87738803 -104.25890467 156.30978491 C-104.249976 166.66104697 -104.25151632 177.01226415 -104.26074219 187.36352539 C-104.27146312 199.39776862 -104.27541924 211.43197797 -104.26951766 223.46622771 C-104.26640397 229.83136077 -104.26597195 236.19646295 -104.27259064 242.56159401 C-104.27838184 248.5493088 -104.27433466 254.53693915 -104.26280212 260.52464485 C-104.26016468 262.71836456 -104.26090493 264.91209142 -104.26532745 267.10580826 C-104.27082074 270.10825685 -104.26390291 273.11043757 -104.25396729 276.11286926 C-104.25842873 276.97388412 -104.26289017 277.83489897 -104.26748681 278.72200519 C-104.21113179 287.5475058 -102.46610857 295.5424659 -99.125 303.6875 C-98.63257812 304.90824219 -98.14015625 306.12898438 -97.6328125 307.38671875 C-96.43687407 310.03323322 -95.22701396 312.3634913 -93.7421875 314.83203125 C-93.16726562 315.87746094 -92.59234375 316.92289062 -92 318 C-92.33 318.66 -92.66 319.32 -93 320 C-96.94221427 314.18453498 -99.86929532 308.24882013 -102.3125 301.6875 C-102.56660645 301.00623047 -102.82071289 300.32496094 -103.08251953 299.62304688 C-105.58163524 292.71182819 -106.14986313 286.78059743 -106.15390015 279.50654602 C-106.1582824 278.5456112 -106.16266465 277.58467637 -106.1671797 276.59462231 C-106.18054285 273.37208018 -106.18674097 270.14956538 -106.19287109 266.92700195 C-106.20077394 264.61739479 -106.209043 262.30778885 -106.21765137 259.9981842 C-106.24384763 252.41156184 -106.25917539 244.82493403 -106.2734375 237.23828125 C-106.27879793 234.62553593 -106.28417544 232.01279064 -106.28956985 229.40004539 C-106.31119394 218.53194411 -106.33008174 207.66384512 -106.34119225 196.79572773 C-106.34412172 193.97783212 -106.34708342 191.15993654 -106.35009766 188.34204102 C-106.35084371 187.64170654 -106.35158976 186.94137207 -106.35235842 186.21981534 C-106.3650087 174.8780582 -106.39823055 163.53645795 -106.43989949 152.19477413 C-106.4823678 140.53961569 -106.50548546 128.88454581 -106.51111281 117.22931069 C-106.51476539 110.68966439 -106.52677781 104.15028428 -106.55921555 97.61071205 C-106.58930192 91.45713511 -106.59560558 85.30398538 -106.58383179 79.15035057 C-106.58361111 76.89533775 -106.59191087 74.64030506 -106.60948563 72.38536072 C-106.63222443 69.29918664 -106.62385957 66.21455565 -106.60800171 63.12837219 C-106.62882484 61.79978502 -106.62882484 61.79978502 -106.65006864 60.44435769 C-106.55829225 53.16168589 -104.28558637 46.72433614 -99.41207349 41.20002538 C-94.44983812 36.50302846 -88.08183247 33.4784711 -82.125 30.25 C-79.86511846 29.00529771 -77.60600432 27.75920115 -75.34765625 26.51171875 C-73.70627686 25.60752197 -73.70627686 25.60752197 -72.03173828 24.68505859 C-68.17087319 22.53916627 -64.35846081 20.32069857 -60.5625 18.0625 C-53.73545699 14.01492788 -46.88716125 10.00497818 -40.01974487 6.02633667 C-38.28461612 5.02007509 -36.5515871 4.01019565 -34.81860352 3.00024414 C-33.74924561 2.38141357 -32.6798877 1.76258301 -31.578125 1.125 C-30.62325195 0.57070313 -29.66837891 0.01640625 -28.68457031 -0.5546875 C-18.50158726 -6.03697739 -10.32178586 -4.42462186 0 0 Z " fill="#E5E5E5" transform="translate(106,16)"/>
<path d="M0 0 C-0.33209902 8.10321611 -1.41912319 14.60043341 -7.46875 20.34375 C-11.88015203 23.88212491 -16.8724151 26.47073736 -21.8125 29.1875 C-23.88998736 30.3451626 -25.96680617 31.50402571 -28.04296875 32.6640625 C-29.06052246 33.23157227 -30.07807617 33.79908203 -31.12646484 34.38378906 C-34.99109419 36.55743786 -38.81296405 38.79823243 -42.625 41.0625 C-52.34814191 46.82768643 -62.17420417 52.41213025 -72 58 C-73.125 54.25 -73.125 54.25 -72 52 C-71.34 52 -70.68 52 -70 52 C-70.07927734 50.76636719 -70.07927734 50.76636719 -70.16015625 49.5078125 C-70.04504466 45.52034702 -69.55313253 42.69126459 -68 39 C-63.66819204 35.30472559 -58.83791824 32.95348182 -53.76220703 30.42089844 C-48.53999218 27.73455493 -43.50780157 24.71003113 -38.4375 21.75 C-36.21938876 20.47154736 -34.00063177 19.19421448 -31.78125 17.91796875 C-27.18852989 15.26970416 -22.60552334 12.60571243 -18.03125 9.92578125 C-16.92338135 9.27706055 -15.8155127 8.62833984 -14.67407227 7.95996094 C-12.54845218 6.71380273 -10.42390472 5.46581273 -8.30053711 4.21582031 C-6.88140015 3.3838916 -6.88140015 3.3838916 -5.43359375 2.53515625 C-4.18147095 1.79857788 -4.18147095 1.79857788 -2.90405273 1.04711914 C-1 0 -1 0 0 0 Z " fill="#1D1D1D" transform="translate(329,406)"/>
<path d="M0 0 C0.86625 0.495 1.7325 0.99 2.625 1.5 C2.625 2.16 2.625 2.82 2.625 3.5 C1.9129541 3.90613525 1.2009082 4.31227051 0.46728516 4.73071289 C-12.82806037 12.31605515 -26.1165561 19.91279738 -39.375 27.5625 C-40.91873291 28.45304077 -40.91873291 28.45304077 -42.49365234 29.36157227 C-43.48574707 29.93447998 -44.4778418 30.5073877 -45.5 31.09765625 C-46.46244629 31.6496167 -47.42489258 32.20157715 -48.41650391 32.77026367 C-50.5040919 33.99080839 -52.57259076 35.24429034 -54.62646484 36.52075195 C-55.68559082 37.17132568 -56.7447168 37.82189941 -57.8359375 38.4921875 C-58.78774902 39.09015137 -59.73956055 39.68811523 -60.72021484 40.30419922 C-63.74076069 41.6647504 -64.9164789 41.62034245 -68 40.5625 C-68.70253906 40.22734375 -69.40507813 39.8921875 -70.12890625 39.546875 C-72.71375047 38.34211282 -75.13781665 37.83081445 -77.9375 37.3125 C-79.20787109 37.07466797 -79.20787109 37.07466797 -80.50390625 36.83203125 C-81.12136719 36.72246094 -81.73882812 36.61289062 -82.375 36.5 C-80.3257144 34.29939584 -78.38533347 32.79539192 -75.7421875 31.37109375 C-75.02804688 30.98155518 -74.31390625 30.5920166 -73.578125 30.19067383 C-72.80984375 29.77712646 -72.0415625 29.3635791 -71.25 28.9375 C-65.23689824 25.64938515 -59.27076486 22.30663656 -53.375 18.8125 C-52.70412354 18.42070557 -52.03324707 18.02891113 -51.34204102 17.62524414 C-46.85491048 14.99901769 -42.4294303 12.28930606 -38.01953125 9.53515625 C-36.88184223 8.83977938 -35.7431617 8.14602222 -34.60351562 7.45385742 C-32.38263177 6.10231182 -30.17582014 4.72726873 -27.98632812 3.32543945 C-19.25807716 -1.92029342 -9.76887542 -4.0692419 0 0 Z " fill="#1C1C1C" transform="translate(101.375,15.5)"/>
<path d="M0 0 C7.20568683 6.02618453 10.54073139 20.09078114 12 29 C12.04204678 30.99955797 12.05292264 33.00070032 12 35 C13.98 34.34 15.96 33.68 18 33 C16.36587557 34.70840281 15.13093906 35.93453047 13 37 C12.67 107.62 12.34 178.24 12 251 C14.97 250.01 14.97 250.01 18 249 C16.36587557 250.70840281 15.13093906 251.93453047 13 253 C12.37330801 255.16467461 11.84572626 257.35864524 11.375 259.5625 C11.11460937 260.76003906 10.85421875 261.95757812 10.5859375 263.19140625 C10.39257812 264.11824219 10.19921875 265.04507812 10 266 C9.09608029 263.28824086 8.87746965 261.75871847 8.88533211 258.9786768 C8.88519116 258.15802268 8.8850502 257.33736857 8.88490498 256.49184614 C8.88986418 255.59050631 8.89482338 254.68916647 8.89993286 253.76051331 C8.90119513 252.80269846 8.90245741 251.84488362 8.90375793 250.85804409 C8.90915485 247.63393116 8.92168234 244.40988405 8.93408203 241.18579102 C8.93927316 238.87972615 8.94398171 236.57366016 8.94824219 234.26759338 C8.95819879 229.29283696 8.9710547 224.31809918 8.98596573 219.34335518 C9.00899978 211.47206972 9.02232489 203.60078685 9.03366089 195.72947693 C9.03766261 193.03513805 9.04173132 190.34079928 9.04582024 187.64646053 C9.04683946 186.97304709 9.04785869 186.29963364 9.04890881 185.60581373 C9.06065454 177.93813364 9.0745304 170.27045792 9.08935547 162.6027832 C9.0907079 161.90184235 9.09206033 161.20090149 9.09345375 160.47872 C9.11559958 149.13824569 9.14546667 137.79780131 9.17732288 126.45735074 C9.20977525 114.80451723 9.23041037 103.15170159 9.24159515 91.49882835 C9.24835797 84.9602654 9.26078167 78.42182032 9.28662491 71.88330269 C9.31095608 65.72655684 9.32126908 59.56994509 9.32102966 53.41315269 C9.32344331 51.15898596 9.33098376 48.9048177 9.34415817 46.65068817 C9.42163987 32.81078503 9.09524401 20.50253982 2.8125 7.875 C0 2.16788321 0 2.16788321 0 0 Z " fill="#818282" transform="translate(249,192)"/>
<path d="M0 0 C0.66 0.33 1.32 0.66 2 1 C-2.95 3.97 -2.95 3.97 -8 7 C-4.37 7.99 -0.74 8.98 3 10 C3 10.33 3 10.66 3 11 C1.84242187 10.95359375 0.68484375 10.9071875 -0.5078125 10.859375 C-2.04684906 10.82183752 -3.5859137 10.78543949 -5.125 10.75 C-5.88554687 10.71648438 -6.64609375 10.68296875 -7.4296875 10.6484375 C-12.79339339 10.55595981 -15.74345132 11.44430299 -20 15 C-25.54584177 21.93230221 -26.29789295 28.96306899 -26.25396729 37.50617981 C-26.25708727 38.44432217 -26.26020725 39.38246453 -26.26342177 40.34903544 C-26.27137848 43.48251068 -26.26508709 46.61579101 -26.25878906 49.74926758 C-26.26150001 52.0000571 -26.26506152 54.25084573 -26.26940918 56.50163269 C-26.27852465 62.60915499 -26.27499194 68.71660968 -26.26865101 74.82413316 C-26.26358482 81.22029695 -26.26828436 87.61645499 -26.27142334 94.01261902 C-26.27529501 105.44502222 -26.26908052 116.87738803 -26.25890467 128.30978491 C-26.249976 138.66104697 -26.25151632 149.01226415 -26.26074219 159.36352539 C-26.27146312 171.39776862 -26.27541924 183.43197797 -26.26951766 195.46622771 C-26.26640397 201.83136077 -26.26597195 208.19646295 -26.27259064 214.56159401 C-26.27838184 220.5493088 -26.27433466 226.53693915 -26.26280212 232.52464485 C-26.26016468 234.71836456 -26.26090493 236.91209142 -26.26532745 239.10580826 C-26.27082074 242.10825685 -26.26390291 245.11043757 -26.25396729 248.11286926 C-26.25842873 248.97388412 -26.26289017 249.83489897 -26.26748681 250.72200519 C-26.21113179 259.5475058 -24.46610857 267.5424659 -21.125 275.6875 C-20.63257813 276.90824219 -20.14015625 278.12898438 -19.6328125 279.38671875 C-18.43687407 282.03323322 -17.22701396 284.3634913 -15.7421875 286.83203125 C-15.16726563 287.87746094 -14.59234375 288.92289062 -14 290 C-14.33 290.66 -14.66 291.32 -15 292 C-18.94221427 286.18453498 -21.86929532 280.24882013 -24.3125 273.6875 C-24.56660645 273.00623047 -24.82071289 272.32496094 -25.08251953 271.62304688 C-27.58163524 264.71182819 -28.14986313 258.78059743 -28.15390015 251.50654602 C-28.1582824 250.5456112 -28.16266465 249.58467637 -28.1671797 248.59462231 C-28.18054285 245.37208018 -28.18674097 242.14956538 -28.19287109 238.92700195 C-28.20077394 236.61739479 -28.209043 234.30778885 -28.21765137 231.9981842 C-28.24384763 224.41156184 -28.25917539 216.82493403 -28.2734375 209.23828125 C-28.27879793 206.62553593 -28.28417544 204.01279064 -28.28956985 201.40004539 C-28.31119394 190.53194411 -28.33008174 179.66384512 -28.34119225 168.79572773 C-28.34412172 165.97783212 -28.34708342 163.15993654 -28.35009766 160.34204102 C-28.35084371 159.64170654 -28.35158976 158.94137207 -28.35235842 158.21981534 C-28.3650087 146.8780582 -28.39823055 135.53645795 -28.43989949 124.19477413 C-28.4823678 112.53961569 -28.50548546 100.88454581 -28.51111281 89.22931069 C-28.51476539 82.68966439 -28.52677781 76.15028428 -28.55921555 69.61071205 C-28.58930192 63.45713511 -28.59560558 57.30398538 -28.58383179 51.15035057 C-28.58361111 48.89533775 -28.59191087 46.64030506 -28.60948563 44.38536072 C-28.63222443 41.29918664 -28.62385957 38.21455565 -28.60800171 35.12837219 C-28.62882484 33.79978502 -28.62882484 33.79978502 -28.65006864 32.44435769 C-28.55144305 24.61818571 -25.83452876 17.50116738 -20.1875 11.9375 C-16.28605491 8.92433036 -11.95330091 6.5175659 -7.6875 4.0625 C-6.96908936 3.64798584 -6.25067871 3.23347168 -5.51049805 2.80639648 C-3.70898082 1.80460525 -1.8573767 0.89398086 0 0 Z " fill="#E1E2E2" transform="translate(28,44)"/>
<path d="M0 0 C0.33 0 0.66 0 1 0 C1.48958882 6.60944902 0.56404654 12.30109852 -3 18 C-8.27005316 23.66226159 -15.1434053 27.19138759 -21.8125 30.9375 C-23.54850583 31.92556486 -25.28450497 32.9136417 -27.02009583 33.9024353 C-28.81648674 34.92468318 -30.61465796 35.94374328 -32.41308594 36.96240234 C-38.10701761 40.19166126 -43.77031436 43.47411902 -49.4375 46.75 C-51.58330777 47.98702352 -53.72914061 49.22400354 -55.875 50.4609375 C-59.83894023 52.74830553 -63.7972653 55.04488688 -67.75 57.3515625 C-68.63115479 57.86493164 -69.51230957 58.37830078 -70.42016602 58.90722656 C-72.04964723 59.85732268 -73.67782912 60.80965223 -75.30444336 61.76464844 C-76.01737549 62.18004883 -76.73030762 62.59544922 -77.46484375 63.0234375 C-78.079646 63.38356934 -78.69444824 63.74370117 -79.32788086 64.11474609 C-84.52314679 66.86522562 -90.01462317 66.74076615 -95.61328125 65.3515625 C-102.95400397 62.86570271 -109.43789734 59.07697827 -116 55 C-115.01 54.505 -115.01 54.505 -114 54 C-111.4528377 55.22192954 -109.02011652 56.49244621 -106.5625 57.875 C-98.65827106 62.25709854 -93.07211227 63.67379083 -84 63 C-80.40735226 61.69358264 -78.26379534 60.21471714 -75.3125 57.8125 C-73 56 -73 56 -70 56 C-68.27530458 55.15138655 -66.59133705 54.21903066 -64.93359375 53.24609375 C-63.90298828 52.64595459 -62.87238281 52.04581543 -61.81054688 51.42749023 C-60.69744141 50.77079346 -59.58433594 50.11409668 -58.4375 49.4375 C-57.27838681 48.75982707 -56.11887548 48.08283474 -54.95898438 47.40649414 C-52.53478711 45.99230639 -50.11235942 44.57515058 -47.69091797 43.15625 C-44.08563521 41.04653688 -40.46875141 38.95743126 -36.84765625 36.875 C-36.26978867 36.54258804 -35.69192108 36.21017609 -35.09654236 35.86769104 C-33.39780962 34.89076119 -31.69890635 33.91412789 -30 32.9375 C-24.11824289 29.55574821 -18.24240042 26.16433912 -12.40234375 22.7109375 C-11.61077881 22.24349121 -10.81921387 21.77604492 -10.00366211 21.29443359 C-4.31366655 17.61850372 -2.66719887 12.25199577 -1 6 C-0.61580002 4.00914554 -0.25783678 2.01112687 0 0 Z " fill="#EEEEEE" transform="translate(329,406)"/>
<path d="M0 0 C7.14986836 0.25890888 12.15116034 3.68410572 18.125 7.375 C19.10082031 7.96539063 20.07664062 8.55578125 21.08203125 9.1640625 C22.89918735 10.26476824 24.71350903 11.37017796 26.52392578 12.48193359 C29.0065408 14.00401013 31.50077682 15.50538296 34 17 C33.67 17.66 33.34 18.32 33 19 C32.29915283 18.57066162 31.59830566 18.14132324 30.8762207 17.69897461 C27.69731789 15.76322402 24.50529477 13.85024264 21.3125 11.9375 C20.20970703 11.26138672 19.10691406 10.58527344 17.97070312 9.88867188 C16.90400391 9.25380859 15.83730469 8.61894531 14.73828125 7.96484375 C13.75899658 7.3730835 12.77971191 6.78132324 11.77075195 6.17163086 C8.58440068 4.82426107 7.24522133 4.97718166 4 6 C3.236875 6.185625 2.47375 6.37125 1.6875 6.5625 C1.130625 6.706875 0.57375 6.85125 0 7 C1.375 5.5 1.375 5.5 3 4 C3.66 4 4.32 4 5 4 C5 3.34 5 2.68 5 2 C3.35 1.67 1.7 1.34 0 1 C0 0.67 0 0.34 0 0 Z " fill="#E6E6E6" transform="translate(99,15)"/>
<path d="M0 0 C0.66 0.33 1.32 0.66 2 1 C-2.95 3.97 -2.95 3.97 -8 7 C-2.555 8.485 -2.555 8.485 3 10 C3 10.33 3 10.66 3 11 C1.84242187 10.97679687 0.68484375 10.95359375 -0.5078125 10.9296875 C-2.04686851 10.91091852 -3.58593155 10.89271954 -5.125 10.875 C-5.88554687 10.85824219 -6.64609375 10.84148438 -7.4296875 10.82421875 C-12.03270731 10.78453754 -15.66464004 11.24092423 -20 13 C-16.50904207 9.0246945 -12.43925015 6.72274091 -7.875 4.1875 C-7.14667969 3.76791016 -6.41835938 3.34832031 -5.66796875 2.91601562 C-3.81494731 1.87647402 -1.91035606 0.92998652 0 0 Z " fill="#D6D6D6" transform="translate(28,44)"/>
<path d="M0 0 C0.33 0.99 0.66 1.98 1 3 C-7.09320145 10.15213151 -7.09320145 10.15213151 -12.08984375 9.890625 C-14.06806239 9.65421223 -16.03571939 9.33292892 -18 9 C-18 8.67 -18 8.34 -18 8 C-17.28714844 7.92523438 -16.57429687 7.85046875 -15.83984375 7.7734375 C-8.88639577 6.81885918 -4.77812048 5.18580994 0 0 Z " fill="#D6D7D7" transform="translate(255,462)"/>
<path d="M0 0 C6.625 0.75 6.625 0.75 10 3 C9.67 3.66 9.34 4.32 9 5 C6.6875 5.5625 6.6875 5.5625 4 6 C2.66457061 6.32483418 1.33038449 6.6550855 0 7 C1.375 5.5 1.375 5.5 3 4 C3.66 4 4.32 4 5 4 C5 3.34 5 2.68 5 2 C3.35 1.67 1.7 1.34 0 1 C0 0.67 0 0.34 0 0 Z " fill="#D2D2D2" transform="translate(99,15)"/>
</svg>
